<svg t="1578653764148" class="icon" viewBox="0 0 1024 1024" version="1.1" xmlns="http://www.w3.org/2000/svg" p-id="2520" width="200" height="200"><path d="M966.032774 1023.653099c-2.721994 0-5.464455-0.339738-8.16496-1.041726l-212.9623-54.94131c-71.674413 36.655851-151.917992 55.983036-232.905514 55.983036-282.127566 0-511.653099-229.525534-511.653099-511.653099s229.525534-511.653099 511.653099-511.653099 511.653099 229.525534 511.653099 511.653099c0 106.076944-31.893384 207.093639-92.447529 293.312302l65.402569 174.201507c4.273327 11.418051 1.850138 24.260543-6.293333 33.317827C984.04194 1019.804445 975.174991 1023.653099 966.032774 1023.653099zM512 65.664535c-246.109234 0-446.335465 200.226231-446.335465 446.335465s200.226231 446.335465 446.335465 446.335465c74.374918 0 147.984403-18.668175 212.897831-53.963029 0.425695-0.234337 0.871857-0.467651 1.318018-0.701988 7.590885-3.784186 15.925714-4.358261 23.452131-2.232854l163.718759 42.24822-48.689932-129.678478c-4.868891-10.631128-3.827165-23.430642 3.614317-33.254382 58.896388-77.94728 90.024339-170.883949 90.024339-268.753977C958.335465 265.889743 758.109234 65.664535 512 65.664535z" p-id="2521" fill="#8a8a8a"></path><path d="M329.186348 511.994883m-59.874669 0a58.511 58.511 0 1 0 119.749338 0 58.511 58.511 0 1 0-119.749338 0Z" p-id="2522" fill="#8a8a8a"></path><path d="M511.99386 511.994883m-59.874669 0a58.511 58.511 0 1 0 119.749338 0 58.511 58.511 0 1 0-119.749338 0Z" p-id="2523" fill="#8a8a8a"></path><path d="M694.802396 511.994883m-59.874669 0a58.511 58.511 0 1 0 119.749338 0 58.511 58.511 0 1 0-119.749338 0Z" p-id="2524" fill="#8a8a8a"></path></svg>
