<svg t="1578651941799" class="icon" viewBox="0 0 1024 1024" version="1.1" xmlns="http://www.w3.org/2000/svg" p-id="2144" width="200" height="200"><path d="M686.08 0H170.666667C109.226667 0 58.026667 51.2 58.026667 112.64v795.306667C58.026667 972.8 109.226667 1024 170.666667 1024h682.666666c61.44 0 112.64-51.2 112.64-112.64V279.893333L686.08 0z m47.786667 853.333333H276.48c-30.72 0-58.026667-27.306667-58.026667-58.026666s27.306667-58.026667 58.026667-58.026667h453.973333c30.72 0 58.026667 27.306667 58.026667 58.026667s-23.893333 58.026667-54.613333 58.026666z m0-228.693333H276.48c-30.72 0-58.026667-27.306667-58.026667-58.026667 0-30.72 27.306667-58.026667 58.026667-58.026666h453.973333c30.72 0 58.026667 23.893333 58.026667 58.026666s-23.893333 58.026667-54.613333 58.026667z m-98.986667-300.373333V58.026667l266.24 266.24h-266.24z" fill="#1296db" p-id="2145"></path></svg>
